<svg aria-hidden="true" style="position: absolute; width: 0; height: 0; overflow: hidden;" version="1.1"
  xmlns="http://www.w3.org/2000/svg" xmlns:xlink="http://www.w3.org/1999/xlink">
  <defs>
    <symbol id="icon-shopping-basket" viewBox="0 0 37 32">
      <path
        d="M34.286 13.714c1.268 0 2.286 1.018 2.286 2.286s-1.018 2.286-2.286 2.286h-0.268l-2.054 11.821c-0.196 1.089-1.143 1.893-2.25 1.893h-22.857c-1.107 0-2.054-0.804-2.25-1.893l-2.054-11.821h-0.268c-1.268 0-2.286-1.018-2.286-2.286s1.018-2.286 2.286-2.286h32zM8.661 28c0.625-0.054 1.107-0.607 1.054-1.232l-0.571-7.429c-0.054-0.625-0.607-1.107-1.232-1.054s-1.107 0.607-1.054 1.232l0.571 7.429c0.054 0.589 0.554 1.054 1.143 1.054h0.089zM16 26.857v-7.429c0-0.625-0.518-1.143-1.143-1.143s-1.143 0.518-1.143 1.143v7.429c0 0.625 0.518 1.143 1.143 1.143s1.143-0.518 1.143-1.143zM22.857 26.857v-7.429c0-0.625-0.518-1.143-1.143-1.143s-1.143 0.518-1.143 1.143v7.429c0 0.625 0.518 1.143 1.143 1.143s1.143-0.518 1.143-1.143zM29.143 26.946l0.571-7.429c0.054-0.625-0.429-1.179-1.054-1.232s-1.179 0.429-1.232 1.054l-0.571 7.429c-0.054 0.625 0.429 1.179 1.054 1.232h0.089c0.589 0 1.089-0.464 1.143-1.054zM8.5 5.214l-1.661 7.357h-2.357l1.804-7.875c0.464-2.089 2.304-3.554 4.446-3.554h2.982c0-0.625 0.518-1.143 1.143-1.143h6.857c0.625 0 1.143 0.518 1.143 1.143h2.982c2.143 0 3.982 1.464 4.446 3.554l1.804 7.875h-2.357l-1.661-7.357c-0.25-1.054-1.161-1.786-2.232-1.786h-2.982c0 0.625-0.518 1.143-1.143 1.143h-6.857c-0.625 0-1.143-0.518-1.143-1.143h-2.982c-1.071 0-1.982 0.732-2.232 1.786z">
      </path>
    </symbol>
    <symbol id="icon-cart-plus" viewBox="0 0 30 32">
      <path
        d="M21.714 12.571c0-0.625-0.518-1.143-1.143-1.143h-2.286v-2.286c0-0.625-0.518-1.143-1.143-1.143s-1.143 0.518-1.143 1.143v2.286h-2.286c-0.625 0-1.143 0.518-1.143 1.143s0.518 1.143 1.143 1.143h2.286v2.286c0 0.625 0.518 1.143 1.143 1.143s1.143-0.518 1.143-1.143v-2.286h2.286c0.625 0 1.143-0.518 1.143-1.143zM11.429 27.429c0 1.268-1.018 2.286-2.286 2.286s-2.286-1.018-2.286-2.286 1.018-2.286 2.286-2.286 2.286 1.018 2.286 2.286zM27.429 27.429c0 1.268-1.018 2.286-2.286 2.286s-2.286-1.018-2.286-2.286 1.018-2.286 2.286-2.286 2.286 1.018 2.286 2.286zM29.714 8v9.143c0 0.571-0.429 1.071-1.018 1.143l-18.643 2.179c0.071 0.393 0.232 0.839 0.232 1.25s-0.25 0.786-0.429 1.143h16.429c0.625 0 1.143 0.518 1.143 1.143s-0.518 1.143-1.143 1.143h-18.286c-0.625 0-1.143-0.518-1.143-1.143 0-0.554 0.839-1.929 1.089-2.446l-3.161-14.696h-3.643c-0.625 0-1.143-0.518-1.143-1.143s0.518-1.143 1.143-1.143h4.571c1.214 0 1.232 1.429 1.411 2.286h21.446c0.625 0 1.143 0.518 1.143 1.143z">
      </path>
    </symbol>
    <symbol id="icon-toggle-on" viewBox="0 0 37 32">
      <path
        d="M0 16c0-6.304 5.125-11.429 11.429-11.429h13.714c6.304 0 11.429 5.125 11.429 11.429s-5.125 11.429-11.429 11.429h-13.714c-6.304 0-11.429-5.125-11.429-11.429zM25.143 25.143c5.036 0 9.143-4.107 9.143-9.143s-4.107-9.143-9.143-9.143-9.143 4.107-9.143 9.143 4.107 9.143 9.143 9.143z">
      </path>
    </symbol>
    <symbol id="icon-toggle-off" viewBox="0 0 37 32">
      <path
        d="M20.571 16c0-5.036-4.107-9.143-9.143-9.143s-9.143 4.107-9.143 9.143 4.107 9.143 9.143 9.143 9.143-4.107 9.143-9.143zM34.286 16c0-5.036-4.107-9.143-9.143-9.143h-6.893c2.786 2.089 4.607 5.411 4.607 9.143s-1.821 7.054-4.607 9.143h6.893c5.036 0 9.143-4.107 9.143-9.143zM36.571 16c0 6.304-5.125 11.429-11.429 11.429h-13.714c-6.304 0-11.429-5.125-11.429-11.429s5.125-11.429 11.429-11.429h13.714c6.304 0 11.429 5.125 11.429 11.429z">
      </path>
    </symbol>
    <symbol id="icon-translate" viewBox="0 0 32 32">
      <path
        d="M11.856 14.4l3.584 3.584-1.328 3.2-4.512-4.544-5.28 5.28-2.24-2.272 5.248-5.248-1.408-1.408c-0.848-0.848-1.6-2.080-2.080-3.392h3.52c0.24 0.448 0.528 0.848 0.816 1.12l1.424 1.44 1.408-1.408c0.96-0.992 1.792-3.008 1.792-4.352h-12.8v-3.2h8v-3.2h3.2v3.2h8v3.2h-3.2c0 2.192-1.184 5.040-2.72 6.592l-1.44 1.408zM18 27.2l-2 4.8h-3.2l8-19.2h3.2l8 19.2h-3.2l-2-4.8h-8.8zM19.328 24h6.144l-3.072-7.36-3.072 7.36z">
      </path>
    </symbol>
    <symbol id="icon-notification" viewBox="0 0 32 32">
      <path
        d="M6.4 12.8c0-0.001 0-0.003 0-0.004 0-4.173 2.662-7.724 6.381-9.047l0.067-0.021c-0.025-0.152-0.040-0.326-0.040-0.504 0-1.767 1.433-3.2 3.2-3.2s3.2 1.433 3.2 3.2c0 0.178-0.015 0.353-0.043 0.523l0.003-0.019c3.777 1.349 6.432 4.895 6.432 9.062 0 0.003 0 0.007 0 0.010v-0.001 9.6l4.8 3.2v1.6h-28.8v-1.6l4.8-3.2v-9.6zM19.2 28.8c0 1.767-1.433 3.2-3.2 3.2s-3.2-1.433-3.2-3.2v0h6.4z">
      </path>
    </symbol>
    <symbol id="icon-cart" viewBox="0 0 32 32">
      <path d="M12 29c0 1.657-1.343 3-3 3s-3-1.343-3-3c0-1.657 1.343-3 3-3s3 1.343 3 3z"></path>
      <path d="M32 29c0 1.657-1.343 3-3 3s-3-1.343-3-3c0-1.657 1.343-3 3-3s3 1.343 3 3z"></path>
      <path
        d="M32 16v-12h-24c0-1.105-0.895-2-2-2h-6v2h4l1.502 12.877c-0.915 0.733-1.502 1.859-1.502 3.123 0 2.209 1.791 4 4 4h24v-2h-24c-1.105 0-2-0.895-2-2 0-0.007 0-0.014 0-0.020l26-3.98z">
      </path>
    </symbol>
    <symbol id="icon-plus" viewBox="0 0 32 32">
      <path
        d="M31 12h-11v-11c0-0.552-0.448-1-1-1h-6c-0.552 0-1 0.448-1 1v11h-11c-0.552 0-1 0.448-1 1v6c0 0.552 0.448 1 1 1h11v11c0 0.552 0.448 1 1 1h6c0.552 0 1-0.448 1-1v-11h11c0.552 0 1-0.448 1-1v-6c0-0.552-0.448-1-1-1z">
      </path>
    </symbol>
    <symbol id="icon-minus" viewBox="0 0 32 32">
      <path d="M0 13v6c0 0.552 0.448 1 1 1h30c0.552 0 1-0.448 1-1v-6c0-0.552-0.448-1-1-1h-30c-0.552 0-1 0.448-1 1z">
      </path>
    </symbol>
    <symbol id="icon-cross" viewBox="0 0 32 32">
      <path
        d="M31.708 25.708c-0-0-0-0-0-0l-9.708-9.708 9.708-9.708c0-0 0-0 0-0 0.105-0.105 0.18-0.227 0.229-0.357 0.133-0.356 0.057-0.771-0.229-1.057l-4.586-4.586c-0.286-0.286-0.702-0.361-1.057-0.229-0.13 0.048-0.252 0.124-0.357 0.228 0 0-0 0-0 0l-9.708 9.708-9.708-9.708c-0-0-0-0-0-0-0.105-0.104-0.227-0.18-0.357-0.228-0.356-0.133-0.771-0.057-1.057 0.229l-4.586 4.586c-0.286 0.286-0.361 0.702-0.229 1.057 0.049 0.13 0.124 0.252 0.229 0.357 0 0 0 0 0 0l9.708 9.708-9.708 9.708c-0 0-0 0-0 0-0.104 0.105-0.18 0.227-0.229 0.357-0.133 0.355-0.057 0.771 0.229 1.057l4.586 4.586c0.286 0.286 0.702 0.361 1.057 0.229 0.13-0.049 0.252-0.124 0.357-0.229 0-0 0-0 0-0l9.708-9.708 9.708 9.708c0 0 0 0 0 0 0.105 0.105 0.227 0.18 0.357 0.229 0.356 0.133 0.771 0.057 1.057-0.229l4.586-4.586c0.286-0.286 0.362-0.702 0.229-1.057-0.049-0.13-0.124-0.252-0.229-0.357z">
      </path>
    </symbol>
    <symbol id="icon-exit" viewBox="0 0 32 32">
      <path d="M24 20v-4h-10v-4h10v-4l6 6zM22 18v8h-10v6l-12-6v-26h22v10h-2v-8h-16l8 4v18h8v-6z"></path>
    </symbol>
  </defs>
</svg>